Patient4_TMGait_0pt4_03_left_35_EMG.mot
version=1
nRows=36
nColumns=33
inDegrees=no
endheader
time	1LAddLong	2LGlutMax	3LGlutMed	4LIliopsoas	5LSemiMemb	6LBicFemLong	7LRecFem	8LVastMed	9LVastLat	10LGasMed	11LTibAnt	12lTibPost	13LPeroneusLong	14LSol	15LExtDigLong	16LFlexDigLong	17RAddLong	18RGlutMax	19RGlutMed	20RIliopsoas	21RSemiMemb	22RBicFemLong	23RRecFem	24RVastMed	25RVastLat	26RGasMed	27RTibAnt	28RTibPost	29RPeroneusLong	30RSol	31RExtDigLong	32RFlexDigLong
46.31	0.00412	0.59616	0.038757	0.000458	0.011749	0.011292	-0.015106	0.015869	-0.19669	0.030365	0.027313	0.024414	-0.010681	0.037079	0.14343	-0.071716	0.031738	0.096283	0.84991	-0.097656	0.003815	0.055542	-0.092926	0.13672	0.047455	0.003052	-0.05188	-0.004883	0.61249	0.005493	-0.003052	-0.021057
46.311	0.001831	0.56305	0.02533	0.025177	-0.001373	-0.011597	-0.012512	-0.000916	-0.19592	0.024872	0.14526	0.017853	-0.003662	-0.029297	0.35294	-0.068359	0.06012	0.13245	0.36453	-0.15106	-0.045166	0.049744	0.06897	0.059967	0.001068	0.006714	-0.007477	-0.008392	0.00824	-0.050201	-0.000305	-0.01358
46.312	0.004883	0.57495	0.007324	0.00351	0.002594	-0.005951	-0.03891	-0.002441	-0.19134	0.034637	0.17532	0.024261	0.015106	-0.08667	0.046692	-0.065765	0.066986	0.2446	-0.041504	-0.10239	0.014801	0.011749	-0.026245	-0.020905	-0.011597	0.006256	0.057831	-0.004578	-0.77423	-0.016785	-0.001068	-0.01709
46.313	0.004425	0.55374	-0.000153	0.00412	-0.003967	0.008087	-0.10742	0.008087	-0.1944	0.038147	0.17471	0.010986	0.003815	-0.06485	-0.1358	-0.067749	0.046082	0.37827	0.20416	-0.083008	0.02182	-0.009613	-0.19959	-0.009003	0.072327	0.009155	0.054626	-0.00473	-0.41763	0.068817	-0.001831	-0.012665
46.314	0.006866	0.54047	-0.024109	0.00824	-0.001373	-0.005951	-0.13138	0.007782	-0.20721	0.022125	0.15121	0.016174	-0.006561	-0.045624	-0.27283	-0.059204	-0.01358	0.43961	0.11246	-0.003357	-0.15121	0.04776	-0.19394	-0.023956	0.13596	0.000916	-0.014191	0.006714	-0.12482	0.097809	-0.000916	-0.009155
46.315	0.002136	0.522	-0.009613	0.02533	-0.007935	-0.011292	-0.084686	0.012817	-0.18707	0.021057	0.011902	0.010986	-0.005798	0.04715	0.85419	-0.056915	-0.00885	0.46555	-0.12711	0.14633	-0.20218	0.039368	-0.11856	-0.11917	0.025024	-0.004578	-0.024109	-0.005341	0.11215	-0.000153	-0.002441	-0.001068
46.316	0.003052	0.50964	0.005646	0.023956	0.010071	-0.003357	-0.01709	0.015564	-0.19211	0.020142	-0.15411	0.013428	-0.024109	0.030212	0.086517	-0.059204	-0.012207	0.6041	0.1355	0.16602	-0.35553	0.056458	-0.17975	-0.001678	0.022888	-0.001526	-0.006409	-0.005035	0.14893	0.001678	-0.001068	-0.012817
46.317	0.003815	0.50568	0.00412	0.003052	0.000916	0.020752	-0.011444	0.00412	-0.20248	0.020142	-0.093689	0.006866	-0.066681	-0.001526	0.35767	-0.038757	-0.041962	0.68832	0.11032	0.037384	-0.17777	0.050354	-0.15182	0.099792	-0.028687	0.009308	-0.020447	-0.003052	0.33264	0.036926	-0.001068	-0.000153
46.318	-0.002594	0.44907	0.005798	-0.014801	0.001221	0.016327	0.025482	0.019379	-0.21042	0.036926	-0.059967	0.007935	-0.048828	-0.018311	-0.2417	-0.027771	-0.032501	0.77713	0.16983	0.00885	0.081787	-0.052795	-0.059052	0.070343	-0.051117	0.024414	-0.041504	0.00473	0.16678	-0.004425	-0.000458	0.001373
46.319	-0.001068	0.4071	-0.001068	-0.023499	-0.001526	0.010071	0.088806	0.010986	-0.21484	0.041351	0.035858	0.003204	-0.005798	-0.088959	-0.36392	-0.004578	0.00885	0.97595	-0.12009	0.014191	0.121	-0.061951	-0.023499	0.034027	-0.040436	0.021057	-0.012512	-0.000305	-0.38177	-0.081482	-0.00412	0.006409
46.32	-0.004425	0.34485	0.008087	-0.007782	-0.00824	0.014343	0.15778	0.009766	-0.21606	0.037384	0.16724	0.001526	0.023193	-0.10223	-0.22293	-0.002594	0.014343	1.0806	0.021362	-0.027313	0.10361	-0.02655	0.02594	0.022583	-0.037537	0.011902	0.0383	0.002899	-0.11475	-0.045166	0	-0.015106
46.321	-0.001678	0.29602	-0.000916	0.004578	-0.003204	0.019989	0.16159	0.01236	-0.21408	0.035248	0.13199	-0.002747	0.049438	-0.03891	-0.26154	-0.00946	-0.010681	1.1853	0.51453	-0.016785	0.062103	0.067596	0.005951	0.03952	-0.028839	0.004272	0.056	-0.003815	-0.21164	-0.050812	0.001526	-0.010986
46.322	0.000153	0.25528	-0.001068	0.014038	-0.010071	0.031281	0.16571	0.015106	-0.20157	0.05188	-0.11993	-0.008087	0.027466	-0.010681	-0.19821	0.005035	-0.013123	1.2491	0.47669	0.032806	0.093231	0.068665	-0.015564	-0.049286	-0.039215	0.003967	0.044403	-0.006256	-0.25497	-0.022278	-0.002747	-0.006561
46.323	0.006256	0.2356	0.009308	0.007782	-0.006866	0.02243	0.13931	0.015411	-0.19516	0.066986	-0.41	-0.006104	-0.05188	-0.02121	-0.061188	-0.007019	-0.040436	1.2518	0.57739	0.074463	0.19959	0.1236	-0.20706	-0.079346	-0.028381	0.007019	0.049591	-0.009918	-0.1474	-0.068054	-0.003052	-0.013885
46.324	0.005646	0.20172	-0.009613	0.023956	-0.003815	-0.002441	0.1239	0.012817	-0.19241	0.053558	-0.24902	-0.006256	-0.054626	-0.071411	0.031433	0.014343	-0.015717	1.3112	0.87738	0.036774	-0.00885	0.17563	-0.12405	-0.028534	-0.003967	0.003357	0.024872	-0.02121	0.17105	-0.074463	-0.002289	-0.014801
46.325	0	0.20569	0.001373	0.010071	0.000916	-0.002899	0.10498	0.011292	-0.19196	0.047455	-0.1062	-0.01358	-0.020142	-0.11993	0.40375	0.022125	0.017548	1.3106	0.64926	-0.001678	-0.13657	0.12405	-0.065002	0.006409	-0.033264	-0.007477	-0.019379	-0.018005	0.035248	0.012512	-0.005341	-0.003204
46.326	0.00473	0.19989	0.015106	0.000305	-0.001831	-0.036163	0.10696	0.006256	-0.1738	0.046234	-0.079193	-0.013275	-0.020599	-0.10819	0.89218	0.027771	0.030212	1.2488	0.21606	-0.02533	-0.18829	0.022888	-0.087891	0.020752	-0.019379	-0.007324	-0.037079	0.002136	0.14175	-0.046082	-0.005951	-0.004272
46.327	0.007019	0.19684	0.015717	-0.012512	0.000305	-0.04303	0.10834	-0.001526	-0.19104	0.036469	0.019836	-0.011444	-0.011139	-0.092926	0.38574	0.033875	0.013733	1.1542	0.49255	0.004883	-0.22812	0.011444	-0.029297	0.008545	0.007629	-0.016785	0.022888	0.012512	-0.071259	-0.32242	-0.001831	-0.003967
46.328	0.004578	0.16296	-0.016632	-0.002136	-0.000153	-0.040283	0.11139	0.01236	-0.19486	0.019226	0.098267	-0.015564	-0.007172	-0.036926	-0.27664	0.046997	0	1.0167	0.38803	0.000153	-0.14145	0.018005	0.013123	-0.03952	-0.005646	-0.032196	0.067596	0.006714	-0.26093	-0.48309	0.001373	-0.003967
46.329	0.010376	0.15625	0.00061	0.012054	0.011597	-0.02243	0.096436	0.013428	-0.19516	0.001984	0.091553	-0.015411	0.001526	-0.044861	-0.24887	0.046844	-0.027161	0.86548	0.02533	0.019684	0.11643	0.014801	-0.014038	-0.030823	-0.030823	-0.028687	0.009308	-0.098267	0.18509	0.041351	0.000458	-0.012512
46.33	0.001984	0.1648	0.024109	0.008087	0.013885	-0.004883	0.10223	0.012665	-0.19898	0.005188	-0.055237	-0.014801	-0.045624	-0.061493	0.24017	0.044556	-0.021057	0.81253	0.18601	0.034637	0.12497	0.007477	-0.045471	-0.061798	-0.028381	-0.035858	-0.045471	-0.28625	0.37369	-0.041962	-0.00351	0.000305
46.331	0.006409	0.21545	0.025787	-0.010986	0.009613	0.02182	0.10498	0.014801	-0.19913	0.041809	-0.014191	-0.013275	-0.049438	-0.085297	-0.15518	0.028839	-0.003967	0.71899	0.47958	-0.002594	0.092316	0.025635	-0.08194	-0.12314	-0.032196	-0.04364	-0.024109	0.23895	-0.058746	-0.15656	0.001068	0.002899
46.332	0.011597	0.16953	0.008392	0.007782	0.012207	0.024414	0.098114	0.008392	-0.18219	0.018768	-0.11383	-0.017853	0.024719	-0.11047	-0.51788	0.029755	0.002899	0.61859	0.51971	-0.042419	0.040894	0.041656	-0.029144	-0.059204	-0.040741	0.000153	-0.040894	0.14404	0.043182	0.3006	-0.002899	0.003204
46.333	0.010681	0.2002	-0.001373	0.002594	-0.014648	0.038605	0.11261	0.015259	-0.18646	0.007477	-0.11322	-0.022888	0.042267	-0.11704	-0.32166	0.027771	0.001221	0.53055	0.28351	-0.02533	-0.003357	0.00061	-0.00412	-0.016632	-0.055237	-0.00473	-0.055847	0.010681	0.19867	0.38177	-0.002899	0.00473
46.334	0.014191	0.16159	-0.011444	0.006866	-0.015564	0.02182	0.094147	0.015869	-0.16998	0.007629	-0.026398	-0.017853	0.014648	-0.095062	-0.22263	0.034943	0.009766	0.50064	0.26886	0.000305	-0.016479	-0.040741	-0.041656	-0.007172	-0.065613	-0.024719	-0.017853	0.004272	0.12375	0.027008	-0.003357	0.006409
46.335	0.010681	0.17212	-0.018768	-0.007629	-0.003967	0.01358	0.096893	0.014954	-0.16892	-0.007019	0.15427	-0.009155	-0.02121	-0.03952	-0.21378	0.033417	0.022888	0.41641	0.086212	-0.054779	0.02243	-0.022736	-0.1001	-0.008545	-0.04715	-0.027466	-0.006866	0.00412	0.13672	-0.16449	-0.002441	0.004425
46.336	0.018616	0.15579	-0.024261	0.000916	-0.011444	0.027008	0.095978	0.018616	-0.16098	-0.016785	0.28961	-0.016327	-0.047302	-0.095062	0.049744	0.030975	0.013733	0.26749	0.099487	-0.045929	0.020294	0.029755	-0.13336	-0.015411	-0.017853	-0.027008	0.027924	-0.001984	0.21362	0.11292	-0.003662	0.005341
46.337	0.009003	0.11749	-0.019531	0.023499	-0.004578	0.007324	0.085602	0.008698	-0.14023	-0.037384	0.14038	-0.012817	-0.052338	-0.16464	0.09552	0.037231	-0.016937	0.17105	0.46173	0.018921	-0.048523	0.11566	-0.22278	0.006714	-0.000458	-0.005493	0.019531	-0.006714	-0.26886	0.45242	-0.00061	0.001678
46.338	0.006866	0.073853	-0.005798	0.003967	-0.003052	-0.002899	0.076447	0.00824	-0.11749	-0.05188	-0.046234	-0.001984	-0.018005	-0.17609	0.11185	0.039063	-0.031738	0.056152	0.23972	0.089569	-0.09201	0.13229	-0.068817	0.043945	-0.032501	0.043335	0.004272	0.004883	-1.0298	0.16449	-0.00351	-0.006561
46.339	0.005341	0.074463	-0.01709	-0.00473	0.00824	-0.009003	0.079193	0.015869	-0.09964	-0.039978	-0.046997	-0.006104	-0.068207	-0.1651	0.11231	0.039215	-0.019989	-0.019684	0.032349	0.065155	0.023804	-0.020142	0.041504	0.009613	-0.059052	0.024261	0.001526	-0.20706	-0.096436	0.042725	0.001221	-0.013275
46.34	-0.000153	0.090179	0.002899	-0.001373	0.001068	-0.019684	0.072327	0.009918	-0.080261	-0.028076	0.033875	-0.000305	-0.12711	-0.15182	0.20706	0.033722	0.009918	-0.030212	1.0847	-0.014648	0.053253	-0.073547	0.068512	-0.036316	-0.081024	0.015717	-0.001373	0.02243	0.48263	-0.011444	-0.006866	-0.012512
46.341	0.001068	0.041656	0.011597	0.007782	-0.001068	-0.028992	0.056	0.014954	-0.084229	-0.032043	0.009766	-0.002594	-0.077515	-0.21545	-0.046844	0.035553	0.004272	-0.16998	0.90988	0.042419	0.008392	-0.020905	0.018616	0.024719	-0.05661	0.030975	0.009613	0.1915	-0.066986	-0.037842	-0.006256	0.000305
46.342	0.006714	0.044098	0.019989	0.025024	-0.00061	-0.029144	0.075073	0.008698	-0.071869	-0.037079	0.012512	0.006866	-0.026245	-0.22675	-0.024414	0.040741	-0.006104	-0.18631	0.024719	0.021362	-0.048065	-0.02533	-0.012665	0.068359	-0.03418	0.050354	0.014343	0.093842	-0.18494	0.040436	-0.003815	-0.011139
46.343	0.005341	-0.003357	0.049133	0.007629	-0.001221	-0.012817	0.067291	0.009766	-0.06546	-0.03479	0.036163	0.005341	-0.019226	-0.18021	0.014343	0.022736	0.001068	-0.26794	-0.060425	0.001221	-0.044556	-0.023041	0.003204	0.075989	0.041504	0.039978	0.023804	-0.097961	-0.1326	0.14374	0.009155	-0.008545
46.344	0.005951	-0.006409	0.023804	0.006256	0.006104	-0.004883	0.075836	0.007019	-0.07019	-0.030365	-0.10803	0.006561	0.001526	-0.18921	-0.0177	0.029602	0.018158	-0.22751	-0.10864	-0.015106	0.019531	-0.067749	-0.046997	0.023499	0.028992	0.04837	0.03006	-0.47501	0.036469	0.16281	-0.000916	-0.006409
46.345	0.006714	-0.022125	-0.004425	0.00351	0.005188	-0.011902	0.066986	0.012512	-0.057678	-0.034943	-0.15305	0.006866	0.043182	-0.17502	-0.070801	0.034485	0.029602	-0.327	-0.32227	0.032043	0.025482	-0.043793	-0.055084	-0.048065	0.010376	0.027924	0.004425	0.091858	0.21439	-0.11322	0.000153	-0.009766
